<svg xmlns="http://www.w3.org/2000/svg" version="1.1" xmlns:xlink="http://www.w3.org/1999/xlink" xmlns:svgjs="http://svgjs.dev/svgjs" width="90" height="30" viewBox="0 0 2000 1500"><rect width="2000" height="1500" fill="#ffffff"></rect><g transform="matrix(0.75,0,0,0.75,249.090909090909,492.28512669821976)"><svg viewBox="0 0 396 136" data-background-color="#ffffff" preserveAspectRatio="xMidYMid meet" height="686" width="2000" xmlns="http://www.w3.org/2000/svg" xmlns:xlink="http://www.w3.org/1999/xlink"><g id="tight-bounds" transform="matrix(1,0,0,1,0.2400000000000091,0.12288196120914563)"><svg viewBox="0 0 395.52 135.75395964031532" height="135.75395964031532" width="395.52"><g><svg viewBox="0 0 657.1895096445764 225.56654067639673" height="135.75395964031532" width="395.52"><g transform="matrix(1,0,0,1,261.66950964457646,52.140855294431375)"><svg viewBox="0 0 395.52 121.28483008753398" height="121.28483008753398" width="395.52"><g id="textblocktransform"><svg viewBox="0 0 395.52 121.28483008753398" height="121.28483008753398" width="395.52" id="textblock"><g><svg viewBox="0 0 395.52 76.4647168034441" height="76.4647168034441" width="395.52"><g transform="matrix(1,0,0,1,0,0)"><svg width="395.52" viewBox="2.2 -34.47 181.45000000000002 35.08" height="76.4647168034441" data-palette-color="#000000"><path d="M13.96 0.61L13.96 0.61Q10.33 0.61 7.35-0.74 4.37-2.1 2.2-4.42L2.2-4.42 4.47-7.1Q6.27-5.13 8.79-4.03 11.3-2.93 14.01-2.93L14.01-2.93Q17.46-2.93 19.38-4.49 21.31-6.05 21.31-8.59L21.31-8.59Q21.31-10.4 20.56-11.49 19.8-12.57 18.51-13.29 17.21-14.01 15.6-14.72L15.6-14.72 10.72-16.89Q9.16-17.58 7.57-18.65 5.98-19.73 4.92-21.41 3.86-23.1 3.86-25.56L3.86-25.56Q3.86-28.15 5.22-30.15 6.59-32.15 8.97-33.31 11.35-34.47 14.36-34.47L14.36-34.47Q17.46-34.47 20-33.3 22.53-32.13 24.27-30.4L24.27-30.4 22.05-27.71Q20.51-29.17 18.55-30.04 16.6-30.91 14.36-30.91L14.36-30.91Q11.47-30.91 9.7-29.52 7.93-28.13 7.93-25.81L7.93-25.81Q7.93-24.15 8.79-23.07 9.64-22 10.94-21.3 12.23-20.61 13.55-20.04L13.55-20.04 18.38-17.97Q20.36-17.14 21.95-15.99 23.54-14.84 24.46-13.15 25.39-11.45 25.39-8.91L25.39-8.91Q25.39-6.25 24-4.09 22.61-1.93 20.06-0.66 17.5 0.61 13.96 0.61ZM38.99 0.61L38.99 0.61Q35.06 0.61 33.21-1.86 31.37-4.32 31.37-9.11L31.37-9.11 31.37-24.98 35.28-24.98 35.28-9.62Q35.28-6.08 36.44-4.46 37.6-2.83 40.18-2.83L40.18-2.83Q42.14-2.83 43.69-3.85 45.24-4.86 47.09-7.15L47.09-7.15 47.09-24.98 51-24.98 51 0 47.75 0 47.41-3.96 47.24-3.96Q45.51-1.9 43.53-0.65 41.55 0.61 38.99 0.61ZM63.57 0L59.61 0 59.61-24.98 62.91-24.98 63.28-21.31 63.37-21.31Q65.03-23.14 67-24.38 68.96-25.61 71.21-25.61L71.21-25.61Q74.07-25.61 75.69-24.32 77.31-23.02 78.05-20.8L78.05-20.8Q80.02-22.92 82.08-24.27 84.13-25.61 86.35-25.61L86.35-25.61Q90.18-25.61 92.06-23.13 93.94-20.65 93.94-15.87L93.94-15.87 93.94 0 90.01 0 90.01-15.36Q90.01-18.92 88.84-20.56 87.67-22.19 85.22-22.19L85.22-22.19Q82.34-22.19 78.78-18.19L78.78-18.19 78.78 0 74.8 0 74.8-15.36Q74.8-18.92 73.64-20.56 72.48-22.19 70.01-22.19L70.01-22.19Q67.13-22.19 63.57-18.19L63.57-18.19 63.57 0ZM106.12 0L102.17 0 102.17-24.98 105.46-24.98 105.83-21.31 105.93-21.31Q107.59-23.14 109.55-24.38 111.52-25.61 113.76-25.61L113.76-25.61Q116.62-25.61 118.24-24.32 119.87-23.02 120.6-20.8L120.6-20.8Q122.58-22.92 124.63-24.27 126.68-25.61 128.9-25.61L128.9-25.61Q132.73-25.61 134.61-23.13 136.49-20.65 136.49-15.87L136.49-15.87 136.49 0 132.56 0 132.56-15.36Q132.56-18.92 131.39-20.56 130.22-22.19 127.78-22.19L127.78-22.19Q124.89-22.19 121.33-18.19L121.33-18.19 121.33 0 117.35 0 117.35-15.36Q117.35-18.92 116.19-20.56 115.03-22.19 112.57-22.19L112.57-22.19Q109.68-22.19 106.12-18.19L106.12-18.19 106.12 0ZM154.75 0.61L154.75 0.61Q151.45 0.61 148.76-0.95 146.06-2.51 144.46-5.44 142.86-8.37 142.86-12.45L142.86-12.45Q142.86-16.53 144.46-19.48 146.06-22.44 148.62-24.02 151.19-25.61 154.04-25.61L154.04-25.61Q158.75-25.61 161.34-22.46 163.93-19.31 163.93-13.89L163.93-13.89Q163.93-12.52 163.78-11.57L163.78-11.57 146.77-11.57Q146.96-7.5 149.26-5 151.55-2.51 155.21-2.51L155.21-2.51Q157.09-2.51 158.66-3.02 160.22-3.52 161.56-4.42L161.56-4.42 162.95-1.95Q161.32-0.83 159.34-0.11 157.36 0.61 154.75 0.61ZM146.72-14.43L146.72-14.43 160.44-14.43Q160.44-18.36 158.78-20.41 157.12-22.46 154.09-22.46L154.09-22.46Q151.38-22.46 149.25-20.36 147.11-18.26 146.72-14.43ZM174.11 0L170.15 0 170.15-24.98 173.45-24.98 173.82-20.46 173.91-20.46Q175.23-22.8 177.06-24.21 178.89-25.61 181.02-25.61L181.02-25.61Q182.63-25.61 183.65-25.1L183.65-25.1 182.78-21.73Q182.24-21.9 181.76-21.97 181.29-22.05 180.51-22.05L180.51-22.05Q178.92-22.05 177.16-20.74 175.4-19.43 174.11-16.16L174.11-16.16 174.11 0Z" opacity="1" transform="matrix(1,0,0,1,0,0)" fill="#000000" class="wordmark-text-0" data-fill-palette-color="primary" id="text-0"></path></svg></g></svg></g><g transform="matrix(1,0,0,1,0,94.51620128753397)"><svg viewBox="0 0 232.209792 26.768628799999995" height="26.768628799999995" width="232.209792"><g transform="matrix(1,0,0,1,0,0)"><svg width="232.209792" viewBox="0.7 -35.5 323.96000000000004 37.35" height="26.768628799999995" data-palette-color="#000000"><path d="M0.7 0Q2.35 0 3.58-1.35 4.8-2.7 4.8-5.7L4.8-5.7 4.8-32.45 1.45-32.55 1.45-35 7.65-35 7.65-5.9Q7.65-2.2 5.98-0.18 4.3 1.85 1.35 1.85L1.35 1.85 0.7 0ZM24.5 0L24.7-2.55Q23.5-1.05 21.67-0.25 19.85 0.55 18 0.55L18 0.55Q8.6 0.55 8.6-8.6L8.6-8.6 8.6-25.05 11.4-25.05 11.4-8.25Q11.4-5.05 13.17-3.5 14.95-1.95 18-1.95L18-1.95Q21-1.95 22.72-3.48 24.45-5 24.45-8.25L24.45-8.25 24.45-25.05 27.25-25.05 27.25 0 24.5 0ZM33.59-6.35Q33.89-4.1 35.84-2.98 37.8-1.85 40.2-1.85L40.2-1.85Q42.45-1.85 44.3-2.88 46.14-3.9 46.14-6.2L46.14-6.2Q46.14-7.7 45.27-8.68 44.39-9.65 43.09-10.25 41.8-10.85 39.59-11.55L39.59-11.55Q37.14-12.35 35.59-13.05 34.05-13.75 32.89-15.03 31.75-16.3 31.55-18.25L31.55-18.25 31.5-18.85Q31.5-20.5 32.42-22.08 33.34-23.65 35.27-24.65 37.2-25.65 40.09-25.65L40.09-25.65Q41.7-25.65 42.92-25.33 44.14-25 44.84-24.65 45.55-24.3 45.7-24.2L45.7-24.2 44.75-21.9Q44.59-22 44.02-22.3 43.45-22.6 42.39-22.9 41.34-23.2 40.09-23.2L40.09-23.2Q37.7-23.2 35.99-22.08 34.3-20.95 34.3-18.95L34.3-18.95Q34.3-17.05 35.84-16.05 37.39-15.05 40.59-14.05L40.59-14.05Q43.3-13.15 44.95-12.35 46.59-11.55 47.77-10.08 48.95-8.6 48.95-6.25L48.95-6.25Q48.95-3.25 46.72-1.25 44.5 0.75 40.2 0.75L40.2 0.75Q37.34 0.75 35.27-0.23 33.2-1.2 32.12-2.8 31.04-4.4 30.95-6.35L30.95-6.35 33.59-6.35ZM58.19 0.65Q55.39-0.15 54.14-1.9 52.89-3.65 52.89-6.6L52.89-6.6 52.89-35 55.69-35 55.69-25.05 61.69-25.05 60.49-22.4 55.69-22.4 55.69-6.6Q55.69-2.6 58.99-1.5L58.99-1.5 58.19 0.65ZM81.19-6.35Q81.49-4.1 83.44-2.98 85.39-1.85 87.79-1.85L87.79-1.85Q90.04-1.85 91.89-2.88 93.74-3.9 93.74-6.2L93.74-6.2Q93.74-7.7 92.86-8.68 91.99-9.65 90.69-10.25 89.39-10.85 87.19-11.55L87.19-11.55Q84.74-12.35 83.19-13.05 81.64-13.75 80.49-15.03 79.34-16.3 79.14-18.25L79.14-18.25 79.09-18.85Q79.09-20.5 80.01-22.08 80.94-23.65 82.86-24.65 84.79-25.65 87.69-25.65L87.69-25.65Q89.29-25.65 90.51-25.33 91.74-25 92.44-24.65 93.14-24.3 93.29-24.2L93.29-24.2 92.34-21.9Q92.19-22 91.61-22.3 91.04-22.6 89.99-22.9 88.94-23.2 87.69-23.2L87.69-23.2Q85.29-23.2 83.59-22.08 81.89-20.95 81.89-18.95L81.89-18.95Q81.89-17.05 83.44-16.05 84.99-15.05 88.19-14.05L88.19-14.05Q90.89-13.15 92.54-12.35 94.19-11.55 95.36-10.08 96.54-8.6 96.54-6.25L96.54-6.25Q96.54-3.25 94.31-1.25 92.09 0.75 87.79 0.75L87.79 0.75Q84.94 0.75 82.86-0.23 80.79-1.2 79.71-2.8 78.64-4.4 78.54-6.35L78.54-6.35 81.19-6.35ZM115.99 0L116.19-2.55Q114.99-1.05 113.16-0.25 111.34 0.55 109.49 0.55L109.49 0.55Q100.09 0.55 100.09-8.6L100.09-8.6 100.09-25.05 102.89-25.05 102.89-8.25Q102.89-5.05 104.66-3.5 106.44-1.95 109.49-1.95L109.49-1.95Q112.49-1.95 114.21-3.48 115.94-5 115.94-8.25L115.94-8.25 115.94-25.05 118.74-25.05 118.74 0 115.99 0ZM152.98 0L152.98-17.15Q152.98-20.15 151.41-21.55 149.83-22.95 147.33-22.95L147.33-22.95Q145.38-22.95 142.98-22.1L142.98-22.1 141.13-21.2Q141.98-19.5 141.98-17.3L141.98-17.3 141.98 0 139.23 0 139.23-17.15Q139.23-20.2 137.66-21.58 136.08-22.95 133.53-22.95L133.53-22.95Q131.98-22.95 130.33-22.48 128.68-22 127.33-21.25L127.33-21.25 127.33 0 124.53 0 124.53-25.05 127.33-25.05 127.08-23.45Q130.38-25.4 133.83-25.4L133.83-25.4Q135.63-25.4 137.21-24.8 138.78-24.2 139.88-23.05L139.88-23.05Q140.58-23.45 141.98-24.15L141.98-24.15Q144.93-25.5 147.68-25.5L147.68-25.5Q151.23-25.5 153.48-23.33 155.73-21.15 155.73-17.3L155.73-17.3 155.73 0 152.98 0ZM189.73 0L189.73-17.15Q189.73-20.15 188.16-21.55 186.58-22.95 184.08-22.95L184.08-22.95Q182.13-22.95 179.73-22.1L179.73-22.1 177.88-21.2Q178.73-19.5 178.73-17.3L178.73-17.3 178.73 0 175.98 0 175.98-17.15Q175.98-20.2 174.41-21.58 172.83-22.95 170.28-22.95L170.28-22.95Q168.73-22.95 167.08-22.48 165.43-22 164.08-21.25L164.08-21.25 164.08 0 161.28 0 161.28-25.05 164.08-25.05 163.83-23.45Q167.13-25.4 170.58-25.4L170.58-25.4Q172.38-25.4 173.96-24.8 175.53-24.2 176.63-23.05L176.63-23.05Q177.33-23.45 178.73-24.15L178.73-24.15Q181.68-25.5 184.43-25.5L184.43-25.5Q187.98-25.5 190.23-23.33 192.48-21.15 192.48-17.3L192.48-17.3 192.48 0 189.73 0ZM215.23 0Q209.83 0.55 207.43 0.55L207.43 0.55Q202.18 0.55 199.08-1.4 195.98-3.35 195.98-8.45L195.98-8.45 195.98-12.6Q195.98-17.55 199.43-19.25L199.43-19.25Q201.08-20.1 203.63-20.1L203.63-20.1Q205.98-20.1 208.38-19.33 210.78-18.55 212.43-17.3L212.43-17.3Q212.43-20.05 210.83-21.68 209.23-23.3 204.68-23.3L204.68-23.3 204.83-25.45Q209.63-25.45 211.9-23.93 214.18-22.4 214.7-20.3 215.23-18.2 215.23-14.9L215.23-14.9 215.23 0ZM212.43-15.15Q210.38-16.1 208.05-16.8 205.73-17.5 203.78-17.5L203.78-17.5Q198.73-17.5 198.73-12.45L198.73-12.45 198.73-8.1Q198.73-4.85 200.98-3.38 203.23-1.9 207.38-1.9L207.38-1.9Q209.53-1.9 212.43-2.3L212.43-2.3 212.43-15.15ZM220.08 0L220.08-25.05 222.88-25.05 222.73-23.3Q225.08-25.5 228.88-25.5L228.88-25.5Q230.23-25.5 232.58-25.05L232.58-25.05 231.83-22.5Q230.23-23 228.48-23L228.48-23Q226.18-23 224.53-22.15 222.88-21.3 222.88-19.6L222.88-19.6 222.88 0 220.08 0ZM237.97-32.15Q237.32-32.15 236.8-32.68 236.27-33.2 236.27-33.85L236.27-33.85Q236.27-34.5 236.77-35 237.27-35.5 237.97-35.5L237.97-35.5Q238.67-35.5 239.15-35.02 239.62-34.55 239.62-33.85L239.62-33.85Q239.62-33.15 239.12-32.65 238.62-32.15 237.97-32.15L237.97-32.15ZM236.52 0L236.52-25.05 239.32-25.05 239.32 0 236.52 0ZM247.52 0L247.52-2.5 261.27-22.5 247.97-22.5 247.97-25.05 264.82-25.05 264.82-22.55 250.97-2.55 265.87-2.55 265.87 0 247.52 0ZM285.32-1.75Q283.52-0.6 281.22 0 278.92 0.6 276.62 0.6L276.62 0.6Q272.92 0.6 270.74-1.23 268.57-3.05 268.57-6.7L268.57-6.7 268.57-16.95Q268.57-21 271.09-23.25 273.62-25.5 277.77-25.5L277.77-25.5Q281.92-25.5 284.24-23.28 286.57-21.05 286.57-17.1L286.57-17.1 286.57-10.6 271.37-9.75 271.37-6.7Q271.37-4.3 272.92-3.1 274.47-1.9 276.97-1.9L276.97-1.9Q280.47-1.9 284.22-3.9L284.22-3.9 285.32-1.75ZM283.77-17.45Q283.77-20.55 281.82-21.83 279.87-23.1 277.72-23.1L277.72-23.1Q274.97-23.1 273.17-21.6 271.37-20.1 271.37-16.9L271.37-16.9 271.37-12.5 283.77-13.1 283.77-17.45ZM308.01-32.15Q307.36-32.15 306.84-32.68 306.31-33.2 306.31-33.85L306.31-33.85Q306.31-34.5 306.81-35 307.31-35.5 308.01-35.5L308.01-35.5Q308.71-35.5 309.19-35.02 309.66-34.55 309.66-33.85L309.66-33.85Q309.66-33.15 309.16-32.65 308.66-32.15 308.01-32.15L308.01-32.15ZM306.56 0L306.56-25.05 309.36-25.05 309.36 0 306.56 0ZM321.16 0.65Q318.36-0.15 317.11-1.9 315.86-3.65 315.86-6.6L315.86-6.6 315.86-35 318.66-35 318.66-25.05 324.66-25.05 323.46-22.4 318.66-22.4 318.66-6.6Q318.66-2.6 321.96-1.5L321.96-1.5 321.16 0.65Z" opacity="1" transform="matrix(1,0,0,1,0,0)" fill="#000000" class="slogan-text-1" data-fill-palette-color="secondary" id="text-1"></path></svg></g></svg></g></svg></g></svg></g><g><svg viewBox="0 0 225.56654067639673 225.56654067639673" height="225.56654067639673" width="225.56654067639673"><g><svg></svg></g><g id="icon-0"><svg viewBox="0 0 225.56654067639673 225.56654067639673" height="225.56654067639673" width="225.56654067639673"><g><path d="M0 112.783c0-62.288 50.495-112.783 112.783-112.783 62.288 0 112.783 50.495 112.784 112.783 0 62.288-50.495 112.783-112.784 112.784-62.288 0-112.783-50.495-112.783-112.784zM112.783 218.671c58.48 0 105.888-47.407 105.888-105.888 0-58.48-47.407-105.888-105.888-105.887-58.48 0-105.888 47.407-105.887 105.887 0 58.48 47.407 105.888 105.887 105.888z" data-fill-palette-color="accent" fill="#d09632" stroke="transparent"></path></g><g transform="matrix(1,0,0,1,49.13558557425379,61.06959160858011)"><svg viewBox="0 0 127.29536952788915 103.4273574592365" height="103.4273574592365" width="127.29536952788915"><g><svg xmlns="http://www.w3.org/2000/svg" data-name="Layer 1" viewBox="-0.00008061753975832642 12 128.00016123507947 104" x="0" y="0" height="103.4273574592365" width="127.29536952788915" class="icon-dxe-0" data-fill-palette-color="accent" id="dxe-0"><path d="M4 116H124A4 4 0 0 0 126.546 108.915L114.426 98.915A4 4 0 0 0 113.94 98.58 4 4 0 0 0 114 98V92.132A31 31 0 0 1 110 93.663V98H18V48H22V92A2 2 0 0 0 26 92V32H102V33.025A31 31 0 0 1 106 33.41V18A6.007 6.007 0 0 0 100 12H28A6.007 6.007 0 0 0 22 18V44H18A4 4 0 0 0 14 48V98A4 4 0 0 0 14.059 98.581 4 4 0 0 0 13.574 98.915L1.454 108.915A4 4 0 0 0 4 116M26 18A2 2 0 0 1 28 16H100A2 2 0 0 1 102 18V28H26ZM16.12 102H111.88L124 112H4Z" fill="#d09632" data-fill-palette-color="accent"></path><path d="M96 20H92A2 2 0 0 0 92 24H96A2 2 0 0 0 96 20" fill="#d09632" data-fill-palette-color="accent"></path><path d="M84 20H80A2 2 0 0 0 80 24H84A2 2 0 0 0 84 20" fill="#d09632" data-fill-palette-color="accent"></path><path d="M32 40H44A2 2 0 0 0 44 36H32A2 2 0 0 0 32 40" fill="#d09632" data-fill-palette-color="accent"></path><path d="M32 48H68A2 2 0 0 0 68 44H32A2 2 0 0 0 32 48" fill="#d09632" data-fill-palette-color="accent"></path><path d="M32 56H48A2 2 0 0 0 48 52H32A2 2 0 0 0 32 56" fill="#d09632" data-fill-palette-color="accent"></path><path d="M32 64H68A2 2 0 0 0 68 60H32A2 2 0 0 0 32 64" fill="#d09632" data-fill-palette-color="accent"></path><path d="M32 80H58A2 2 0 0 0 58 76H32A2 2 0 0 0 32 80" fill="#d09632" data-fill-palette-color="accent"></path><path d="M32 88H78A2 2 0 0 0 78 84H32A2 2 0 0 0 32 88" fill="#d09632" data-fill-palette-color="accent"></path><path d="M32 68A2 2 0 0 0 32 72H71.052A31 31 0 0 1 70.267 68Z" fill="#d09632" data-fill-palette-color="accent"></path><path d="M101 37A27 27 0 1 0 128 64 27.03 27.03 0 0 0 101 37M101 87A23 23 0 1 1 124 64 23 23 0 0 1 101 87" fill="#d09632" data-fill-palette-color="accent"></path><path d="M111.414 58.586A2 2 0 0 0 108.586 61.414L111.17 64 108.586 66.586A2 2 0 1 0 111.414 69.414L115.414 65.414A2 2 0 0 0 115.414 62.586Z" fill="#d09632" data-fill-palette-color="accent"></path><path d="M93.414 58.586A2 2 0 0 0 90.586 58.586L86.586 62.586A2 2 0 0 0 86.586 65.414L90.586 69.414A2 2 0 0 0 93.414 66.586L90.83 64 93.414 61.414A2 2 0 0 0 93.414 58.586" fill="#d09632" data-fill-palette-color="accent"></path><path d="M103.632 56.103A2.004 2.004 0 0 0 101.102 57.368L97.103 69.368A2 2 0 1 0 100.898 70.632L104.897 58.632A2 2 0 0 0 103.632 56.102" fill="#d09632" data-fill-palette-color="accent"></path></svg></g></svg></g></svg></g></svg></g></svg></g><defs></defs></svg><rect width="395.52" height="135.75395964031532" fill="none" stroke="none" visibility="hidden"></rect></g></svg></g></svg>
